<svg xmlns="http://www.w3.org/2000/svg" viewBox="0 0 200 200" fill="none">
  <defs>
    <linearGradient id="bg" x1="0" y1="0" x2="200" y2="200">
      <stop offset="0%" stop-color="#c084fc"/>
      <stop offset="100%" stop-color="#7c3aed"/>
    </linearGradient>
    <linearGradient id="skin" x1="100" y1="60" x2="100" y2="140">
      <stop offset="0%" stop-color="#f5d0b5"/>
      <stop offset="100%" stop-color="#e8b896"/>
    </linearGradient>
  </defs>
  <rect width="200" height="200" rx="100" fill="url(#bg)" opacity="0.25"/>
  <circle cx="100" cy="78" r="34" fill="url(#skin)"/>
  <path d="M48 178c8-36 32-52 52-52s44 16 52 52" fill="#4b5563"/>
  <path d="M66 178c6-24 20-34 34-34s28 10 34 34" fill="#374151"/>
  <path d="M78 62c6-10 18-14 22-14s16 4 22 14" fill="#3f2e22"/>
  <ellipse cx="88" cy="76" rx="4" ry="5" fill="#2d1f18"/>
  <ellipse cx="112" cy="76" rx="4" ry="5" fill="#2d1f18"/>
  <path d="M94 88c3 3 9 3 12 0" stroke="#c47d5a" stroke-width="2" stroke-linecap="round"/>
</svg>
